# xmcd CD database file
#
# Track frame offsets:
#	187
#	20972
#	37212
#	59567
#	77135
#	98315
#	121040
#	141337
#	158782
#	177332
#
# Disc length: 2647 seconds
#
# Revision: 0
# Processed by: cddbd v1.5PL3 Copyright (c) Steve Scherf et al.
# Submitted via: CDex 1.50
#
DISCID=850a550a
DTITLE=Wink - Nocturne
DYEAR=1992
DGENRE=JPop
TTITLE0=リアルな夢の条件
TTITLE1=あなたに秘密な夜
TTITLE2=冬幻想
TTITLE3=Celebration
TTITLE4=刹那バージョン
TTITLE5=Only One
TTITLE6=無実のオブジェ
TTITLE7=ロマンスの方舟
TTITLE8=ふりむかないで
TTITLE9=時計をとめて
EXTD=YEAR: 1992/11/26
EXTT0=
EXTT1=
EXTT2=
EXTT3=
EXTT4=
EXTT5=
EXTT6=
EXTT7=
EXTT8=
EXTT9=
PLAYORDER=
